<svg width="217" height="177" viewBox="0 0 217 177" fill="none" xmlns="http://www.w3.org/2000/svg">
<path d="M216.833 176.521H0.166687L19.4636 20.7916H197.536L216.833 176.521Z" fill="#89664C"/>
<path d="M88.8649 8.60413C69.2295 8.60413 32.667 15.0364 20.8181 11.3125C20.8181 11.3125 23.8649 78.0051 7.2764 171.781C30.6358 170.088 61.7816 156.885 84.8024 156.885C108.162 156.885 108.162 171.781 108.162 171.781V25.1927C108.839 25.1927 108.5 8.60413 88.8649 8.60413Z" fill="#B0BDC6"/>
<path d="M89.2033 6.23433C69.5679 6.23433 39.4377 12.3281 30.2971 0.479126C30.2971 0.479126 33.3439 75.9739 13.0314 160.271C20.4794 170.766 60.4273 156.547 83.7867 156.547C107.146 156.547 108.5 171.781 108.5 171.781V22.8229C108.839 22.8229 108.839 6.23433 89.2033 6.23433Z" fill="#E1EBEF"/>
<path d="M85.1405 156.885C61.7811 156.885 20.8176 171.781 7.61444 171.781H108.838C108.838 171.781 108.5 156.885 85.1405 156.885Z" fill="#94989B"/>
<path d="M40.1149 28.2395L40.4535 25.5312C43.5003 25.5312 49.2555 24.5156 55.6878 23.1614C64.4899 21.4687 74.6462 19.4374 82.7712 19.4374C93.6045 19.4374 96.9899 21.8072 97.667 22.1458L96.6514 23.1614L95.6358 24.177C95.6358 24.177 92.2503 22.1458 82.7712 22.1458C74.9847 22.1458 65.167 24.177 56.3649 25.8697C49.5941 27.2239 43.8389 28.2395 40.1149 28.2395ZM38.7607 42.7968L39.0993 39.7499C42.4847 39.7499 48.2399 38.7343 54.6722 37.3801C63.8128 35.6874 73.9691 33.6562 82.0941 33.6562C92.9274 33.6562 96.6514 36.026 96.9899 36.3645L96.3128 37.7187L95.2972 39.0729C95.2972 39.0729 91.9118 36.7031 82.0941 36.7031C73.9691 36.7031 64.1514 38.7343 55.0108 40.427C48.2399 41.7812 42.4847 42.7968 38.7607 42.7968ZM37.4066 58.0312L37.7451 54.9843C41.1305 54.9843 46.8858 53.6301 53.6566 52.276C62.7972 50.2447 73.292 48.2135 81.7555 48.2135C92.9274 48.2135 96.6514 50.9218 96.9899 51.2604L95.9743 52.6145L94.9587 53.9687C94.9587 53.9687 91.5733 51.5989 81.417 51.5989C73.292 51.5989 63.1357 53.6301 53.9951 55.6614C47.2243 57.0156 41.1305 58.0312 37.4066 58.0312ZM36.0524 73.9426L36.391 70.5572C39.7764 70.5572 45.8701 69.2031 52.641 67.8489C62.1201 65.8176 72.6149 63.7864 81.417 63.7864C92.9274 63.7864 96.6514 66.4947 96.9899 66.8333L95.6358 68.1874L94.9587 69.5416C94.9587 69.5416 91.5732 67.1718 81.0785 67.1718C72.6149 67.1718 62.1201 69.2031 52.9795 71.2343C45.8701 72.5885 39.7764 73.9426 36.0524 73.9426ZM34.3597 90.5312L34.6983 87.1458C38.0837 87.1458 44.1774 85.7916 51.2868 84.4374C60.766 82.4062 71.5993 80.0364 80.4014 80.0364C91.9118 80.0364 95.9743 82.7447 96.3128 83.0833L95.2972 84.4374L94.2816 85.7916C94.2816 85.7916 90.8962 83.4218 80.0628 83.4218C71.5993 83.4218 60.766 85.7916 51.2868 87.8228C44.516 89.177 38.0837 90.5312 34.3597 90.5312ZM32.667 107.797L33.0055 104.411C36.391 104.411 42.8233 103.057 49.9326 101.365C59.7503 99.3333 70.9222 96.9635 79.7243 96.9635C91.5733 96.9635 95.6357 100.01 95.9743 100.349L94.9587 101.703L93.943 103.057C93.943 103.057 90.2191 100.349 79.3857 100.349C70.5837 100.349 59.7503 102.719 49.9326 104.75C43.1618 106.443 36.7295 107.797 32.667 107.797ZM30.9743 125.74L31.3128 122.016C35.0368 122.016 41.1305 120.661 48.5785 118.969C58.7347 116.599 69.9066 114.229 79.0472 114.229C91.2347 114.229 95.2972 117.276 95.6358 117.615L94.9587 119.307L93.943 120.661C93.943 120.661 90.2191 117.953 79.0472 117.953C70.2451 117.953 59.0732 120.323 48.917 122.693C41.8076 124.385 35.0368 125.74 30.9743 125.74ZM29.2816 144.698L29.6201 140.974C33.3441 140.974 39.7764 139.62 47.2243 137.927C57.3805 135.557 69.2295 132.849 78.3701 132.849C90.8962 132.849 94.9587 136.234 95.2972 136.573L94.2816 137.927L93.6045 139.281C93.6045 139.281 89.8805 136.234 78.3701 136.234C69.2295 136.234 57.7191 138.943 47.5628 141.312C40.1149 143.005 33.3441 144.698 29.2816 144.698Z" fill="#7D8B91"/>
<path d="M128.135 8.60413C147.771 8.60413 184.333 15.0364 196.182 11.3125C196.182 11.3125 193.135 78.0051 209.724 171.781C186.365 170.088 155.219 156.885 132.198 156.885C108.839 156.885 108.839 171.781 108.839 171.781V25.1927C108.5 25.1927 108.5 8.60413 128.135 8.60413Z" fill="#B0BDC6"/>
<path d="M127.797 6.23433C147.432 6.23433 177.563 12.3281 186.703 0.479126C186.703 0.479126 183.656 75.9739 203.969 160.271C196.521 170.766 156.573 156.547 133.214 156.547C109.854 156.547 108.5 171.781 108.5 171.781V22.8229C108.5 22.8229 108.5 6.23433 127.797 6.23433Z" fill="#D9E3E8"/>
<path d="M131.859 156.885C155.219 156.885 196.182 171.781 209.385 171.781H108.5C108.5 171.781 108.5 156.885 131.859 156.885Z" fill="#94989B"/>
<path d="M176.885 28.2395L176.547 25.5312C173.5 25.5312 167.745 24.5156 161.312 23.1614C152.51 21.4687 142.354 19.4374 134.229 19.4374C123.396 19.4374 120.01 21.8072 119.333 22.1458L120.349 23.1614L121.364 24.177C121.364 24.177 124.75 22.1458 134.229 22.1458C142.015 22.1458 151.833 24.177 160.635 25.8697C167.745 27.2239 173.5 28.2395 176.885 28.2395ZM178.239 42.7968L177.901 39.7499C174.515 39.7499 168.76 38.7343 162.328 37.3801C153.187 35.6874 143.031 33.6562 134.906 33.6562C124.073 33.6562 120.349 36.026 120.01 36.3645L121.026 37.3801L122.041 38.7343C122.041 38.7343 125.427 36.3645 135.245 36.3645C143.37 36.3645 153.187 38.3958 162.328 40.0885C168.76 41.7812 174.515 42.7968 178.239 42.7968ZM179.594 58.0312L179.255 54.9843C175.87 54.9843 170.114 53.6301 163.344 52.276C154.203 50.2447 143.708 48.2135 135.245 48.2135C124.073 48.2135 120.349 50.9218 120.01 51.2604L121.026 52.6145L122.041 53.9687C122.041 53.9687 125.427 51.5989 135.583 51.5989C143.708 51.5989 153.864 53.6301 163.005 55.6614C170.114 57.0156 175.87 58.0312 179.594 58.0312ZM181.286 73.9426L180.948 70.5572C177.562 70.5572 171.469 69.2031 164.698 67.8489C155.219 65.8176 144.724 63.7864 135.922 63.7864C124.411 63.7864 120.687 66.4947 120.349 66.8333L121.364 68.1874L122.38 69.5416C122.38 69.5416 125.765 67.1718 136.26 67.1718C144.724 67.1718 155.219 69.2031 164.359 71.2343C171.13 72.5885 177.562 73.9426 181.286 73.9426ZM182.64 90.5312L182.302 87.1458C178.917 87.1458 172.823 85.7916 165.713 84.4374C156.234 82.4062 145.401 80.0364 136.599 80.0364C125.088 80.0364 121.026 82.7447 120.687 83.0833L121.703 84.4374L122.719 85.7916C122.719 85.7916 126.104 83.4218 136.937 83.4218C145.401 83.4218 156.234 85.7916 165.713 87.8228C172.484 89.177 178.917 90.5312 182.64 90.5312ZM184.333 107.797L183.995 104.411C180.609 104.411 174.177 103.057 167.068 101.365C157.25 99.3333 146.078 96.9635 137.276 96.9635C125.427 96.9635 121.364 100.01 121.026 100.349L122.041 101.703L123.057 103.057C123.057 103.057 126.781 100.349 137.614 100.349C146.416 100.349 157.25 102.719 167.068 104.75C173.838 106.443 180.271 107.797 184.333 107.797ZM186.026 125.74L185.687 122.016C181.963 122.016 175.87 120.661 168.422 118.969C158.265 116.599 147.094 114.229 137.953 114.229C125.765 114.229 121.703 117.276 121.364 117.615L122.38 118.969L123.396 120.323C123.396 120.323 127.12 117.615 138.291 117.615C147.094 117.615 158.265 119.984 168.422 122.354C175.531 124.385 181.963 125.74 186.026 125.74ZM187.719 144.698L187.38 140.974C183.656 140.974 177.224 139.62 169.776 137.927C159.62 135.557 147.771 132.849 138.63 132.849C126.104 132.849 122.041 136.234 121.703 136.573L122.719 137.927L123.734 139.62C123.734 139.62 127.458 136.573 138.969 136.573C148.109 136.573 159.62 139.281 169.776 141.651C176.885 143.005 183.656 144.698 187.719 144.698Z" fill="#7D8B91"/>
</svg>
